<svg width="376" height="40" viewBox="0 0 376 40" fill="none" xmlns="http://www.w3.org/2000/svg">
<path d="M0.92 31V9.08H6V18.48H5.64C5.64 16.24 5.92 14.3733 6.48 12.88C7.06667 11.3867 7.94667 10.2667 9.12 9.52C10.2933 8.77333 11.72 8.4 13.4 8.4H13.68C16.24 8.4 18.1867 9.24 19.52 10.92C20.88 12.5733 21.56 15.0933 21.56 18.48V31H15.16V18.12C15.16 16.9467 14.8133 15.9867 14.12 15.24C13.4267 14.4933 12.4933 14.12 11.32 14.12C10.12 14.12 9.14667 14.5067 8.4 15.28C7.68 16.0267 7.32 17.0133 7.32 18.24V31H0.92ZM40.2538 31V24.52H39.1738V17.48C39.1738 16.36 38.9071 15.52 38.3738 14.96C37.8404 14.4 36.9871 14.12 35.8138 14.12C35.2271 14.12 34.4538 14.1333 33.4938 14.16C32.5338 14.1867 31.5471 14.2267 30.5338 14.28C29.5204 14.3333 28.6004 14.3867 27.7738 14.44V9.04C28.3871 8.98667 29.1071 8.93333 29.9338 8.88C30.7604 8.82667 31.6138 8.78667 32.4938 8.76C33.3738 8.73333 34.2004 8.72 34.9738 8.72C37.2138 8.72 39.0938 9.04 40.6138 9.68C42.1604 10.32 43.3338 11.2933 44.1338 12.6C44.9338 13.88 45.3338 15.5333 45.3338 17.56V31H40.2538ZM33.2538 31.56C31.6804 31.56 30.2938 31.28 29.0938 30.72C27.9204 30.16 27.0004 29.36 26.3338 28.32C25.6671 27.2533 25.3338 25.9867 25.3338 24.52C25.3338 22.92 25.7471 21.6133 26.5738 20.6C27.4004 19.56 28.5604 18.8 30.0538 18.32C31.5471 17.8133 33.2671 17.56 35.2138 17.56H39.8938V21.12H35.1738C34.0538 21.12 33.1871 21.4 32.5738 21.96C31.9871 22.4933 31.6938 23.2267 31.6938 24.16C31.6938 25.04 31.9871 25.76 32.5738 26.32C33.1871 26.8533 34.0538 27.12 35.1738 27.12C35.8938 27.12 36.5338 27 37.0938 26.76C37.6804 26.4933 38.1604 26.0533 38.5338 25.44C38.9071 24.8267 39.1204 23.9733 39.1738 22.88L40.6938 24.48C40.5604 26 40.1871 27.28 39.5738 28.32C38.9871 29.36 38.1604 30.16 37.0938 30.72C36.0538 31.28 34.7738 31.56 33.2538 31.56ZM60.7238 31.28C58.5104 31.28 56.7238 31.0133 55.3638 30.48C54.0038 29.92 53.0038 29 52.3638 27.72C51.7504 26.4133 51.4438 24.6533 51.4438 22.44V3.16H57.4038V22.68C57.4038 23.72 57.6704 24.52 58.2038 25.08C58.7638 25.6133 59.5504 25.88 60.5638 25.88H63.8038V31.28H60.7238ZM48.1238 13.76V9.08H63.8038V13.76H48.1238ZM68.1075 31V1.8H74.5075V18.64H73.5475C73.5475 16.4267 73.8275 14.56 74.3875 13.04C74.9475 11.52 75.7742 10.3733 76.8675 9.6C77.9608 8.8 79.3342 8.4 80.9875 8.4H81.2675C83.6942 8.4 85.5475 9.26667 86.8275 11C88.1075 12.7067 88.7475 15.2133 88.7475 18.52V31H82.3475V18.12C82.3475 16.92 81.9875 15.96 81.2675 15.24C80.5742 14.4933 79.6542 14.12 78.5075 14.12C77.3075 14.12 76.3342 14.5067 75.5875 15.28C74.8675 16.0533 74.5075 17.08 74.5075 18.36V31H68.1075ZM107.441 31V24.52H106.361V17.48C106.361 16.36 106.095 15.52 105.561 14.96C105.028 14.4 104.175 14.12 103.001 14.12C102.415 14.12 101.641 14.1333 100.681 14.16C99.7213 14.1867 98.7346 14.2267 97.7213 14.28C96.7079 14.3333 95.7879 14.3867 94.9613 14.44V9.04C95.5746 8.98667 96.2946 8.93333 97.1213 8.88C97.9479 8.82667 98.8013 8.78667 99.6813 8.76C100.561 8.73333 101.388 8.72 102.161 8.72C104.401 8.72 106.281 9.04 107.801 9.68C109.348 10.32 110.521 11.2933 111.321 12.6C112.121 13.88 112.521 15.5333 112.521 17.56V31H107.441ZM100.441 31.56C98.8679 31.56 97.4813 31.28 96.2812 30.72C95.1079 30.16 94.1879 29.36 93.5213 28.32C92.8546 27.2533 92.5213 25.9867 92.5213 24.52C92.5213 22.92 92.9346 21.6133 93.7613 20.6C94.5879 19.56 95.7479 18.8 97.2413 18.32C98.7346 17.8133 100.455 17.56 102.401 17.56H107.081V21.12H102.361C101.241 21.12 100.375 21.4 99.7613 21.96C99.1746 22.4933 98.8813 23.2267 98.8813 24.16C98.8813 25.04 99.1746 25.76 99.7613 26.32C100.375 26.8533 101.241 27.12 102.361 27.12C103.081 27.12 103.721 27 104.281 26.76C104.868 26.4933 105.348 26.0533 105.721 25.44C106.095 24.8267 106.308 23.9733 106.361 22.88L107.881 24.48C107.748 26 107.375 27.28 106.761 28.32C106.175 29.36 105.348 30.16 104.281 30.72C103.241 31.28 101.961 31.56 100.441 31.56ZM117.951 31V9.08H123.031V18.48H122.671C122.671 16.24 122.951 14.3733 123.511 12.88C124.098 11.3867 124.978 10.2667 126.151 9.52C127.325 8.77333 128.751 8.4 130.431 8.4H130.711C133.271 8.4 135.218 9.24 136.551 10.92C137.911 12.5733 138.591 15.0933 138.591 18.48V31H132.191V18.12C132.191 16.9467 131.845 15.9867 131.151 15.24C130.458 14.4933 129.525 14.12 128.351 14.12C127.151 14.12 126.178 14.5067 125.431 15.28C124.711 16.0267 124.351 17.0133 124.351 18.24V31H117.951ZM145.085 31V9.08H151.485V31H145.085ZM142.165 13.8V9.08H151.485V13.8H142.165ZM147.565 6.92C146.365 6.92 145.472 6.61333 144.885 6C144.325 5.36 144.045 4.56 144.045 3.6C144.045 2.61333 144.325 1.81333 144.885 1.2C145.472 0.559998 146.365 0.239998 147.565 0.239998C148.765 0.239998 149.645 0.559998 150.205 1.2C150.792 1.81333 151.085 2.61333 151.085 3.6C151.085 4.56 150.792 5.36 150.205 6C149.645 6.61333 148.765 6.92 147.565 6.92ZM167.444 31.76C165.578 31.76 163.924 31.44 162.484 30.8C161.071 30.16 159.884 29.3067 158.924 28.24C157.991 27.1467 157.271 25.9333 156.764 24.6C156.284 23.24 156.044 21.8533 156.044 20.44V19.64C156.044 18.1733 156.284 16.7733 156.764 15.44C157.271 14.08 157.991 12.8667 158.924 11.8C159.858 10.7333 161.018 9.89333 162.404 9.28C163.818 8.64 165.418 8.32 167.204 8.32C169.551 8.32 171.524 8.85333 173.124 9.92C174.751 10.96 175.991 12.3333 176.844 14.04C177.698 15.72 178.124 17.56 178.124 19.56V21.72H158.724V18.08H174.244L172.164 19.76C172.164 18.4533 171.978 17.3333 171.604 16.4C171.231 15.4667 170.671 14.76 169.924 14.28C169.204 13.7733 168.298 13.52 167.204 13.52C166.084 13.52 165.138 13.7733 164.364 14.28C163.591 14.7867 163.004 15.5333 162.604 16.52C162.204 17.48 162.004 18.6667 162.004 20.08C162.004 21.3867 162.191 22.5333 162.564 23.52C162.938 24.48 163.524 25.2267 164.324 25.76C165.124 26.2933 166.164 26.56 167.444 26.56C168.618 26.56 169.578 26.3333 170.324 25.88C171.071 25.4267 171.578 24.8667 171.844 24.2H177.724C177.404 25.6667 176.778 26.9733 175.844 28.12C174.911 29.2667 173.738 30.16 172.324 30.8C170.911 31.44 169.284 31.76 167.444 31.76ZM182.645 31V1.8H189.085V31H182.645ZM180.045 6.52V1.8H189.085V6.52H180.045ZM213.284 39.2C212.351 39.2 211.377 39.16 210.364 39.08C209.351 39 208.377 38.88 207.444 38.72V36.84C208.404 37 209.404 37.12 210.444 37.2C211.511 37.3067 212.511 37.36 213.444 37.36C215.577 37.36 217.257 37.08 218.484 36.52C219.711 35.9867 220.591 35.0933 221.124 33.84C221.657 32.6133 221.924 30.9733 221.924 28.92V24.6L222.884 21.68C222.857 23.6 222.444 25.2933 221.644 26.76C220.871 28.2267 219.791 29.3867 218.404 30.24C217.017 31.0667 215.391 31.48 213.524 31.48C211.951 31.48 210.537 31.1867 209.284 30.6C208.057 29.9867 207.017 29.1733 206.164 28.16C205.311 27.12 204.657 25.9467 204.204 24.64C203.751 23.3067 203.524 21.9467 203.524 20.56V20.16C203.524 18.8 203.751 17.48 204.204 16.2C204.657 14.8933 205.311 13.7333 206.164 12.72C207.017 11.68 208.071 10.8667 209.324 10.28C210.577 9.66667 212.004 9.36 213.604 9.36C215.551 9.36 217.231 9.8 218.644 10.68C220.057 11.56 221.137 12.7467 221.884 14.24C222.657 15.7333 223.057 17.3867 223.084 19.2L222.284 18.12V10H224.004V28.92C224.004 31.4267 223.657 33.4267 222.964 34.92C222.271 36.44 221.137 37.5333 219.564 38.2C217.991 38.8667 215.897 39.2 213.284 39.2ZM213.804 29.52C215.404 29.52 216.817 29.1733 218.044 28.48C219.271 27.76 220.231 26.7867 220.924 25.56C221.617 24.3067 221.964 22.8933 221.964 21.32V19.28C221.964 17.76 221.617 16.4 220.924 15.2C220.257 13.9733 219.311 13 218.084 12.28C216.857 11.56 215.444 11.2 213.844 11.2C212.084 11.2 210.591 11.6267 209.364 12.48C208.164 13.3333 207.244 14.4533 206.604 15.84C205.964 17.2267 205.644 18.7333 205.644 20.36C205.644 22.04 205.977 23.5867 206.644 25C207.311 26.3867 208.244 27.4933 209.444 28.32C210.671 29.12 212.124 29.52 213.804 29.52ZM244.843 31V24.72H244.443V17C244.443 15.32 244.003 14.0267 243.123 13.12C242.243 12.1867 240.789 11.72 238.763 11.72C238.043 11.72 237.309 11.7467 236.563 11.8C235.816 11.8267 235.109 11.8667 234.443 11.92C233.776 11.9467 233.176 12 232.643 12.08V10.16C233.176 10.08 233.736 10.0133 234.323 9.96C234.936 9.90667 235.549 9.86667 236.163 9.84C236.776 9.81333 237.363 9.8 237.923 9.8C240.029 9.8 241.709 10.08 242.963 10.64C244.216 11.1733 245.123 12 245.683 13.12C246.243 14.2133 246.523 15.6133 246.523 17.32V31H244.843ZM237.523 31.56C236.109 31.56 234.843 31.3067 233.723 30.8C232.603 30.2933 231.709 29.5467 231.043 28.56C230.403 27.5733 230.083 26.3733 230.083 24.96C230.083 23.6 230.389 22.44 231.003 21.48C231.643 20.52 232.549 19.7867 233.723 19.28C234.923 18.7733 236.363 18.52 238.043 18.52H244.643V20.24H237.843C236.029 20.24 234.629 20.68 233.643 21.56C232.683 22.4133 232.203 23.5467 232.203 24.96C232.203 26.4533 232.723 27.64 233.763 28.52C234.803 29.3733 236.163 29.8 237.843 29.8C238.883 29.8 239.896 29.6 240.883 29.2C241.869 28.8 242.696 28.1333 243.363 27.2C244.029 26.24 244.389 24.96 244.443 23.36L245.243 24.28C245.163 25.9067 244.763 27.2667 244.043 28.36C243.349 29.4267 242.443 30.2267 241.323 30.76C240.203 31.2933 238.936 31.56 237.523 31.56ZM263.064 31.68C261.33 31.68 259.81 31.36 258.504 30.72C257.224 30.08 256.144 29.2267 255.264 28.16C254.41 27.0933 253.77 25.9067 253.344 24.6C252.917 23.2933 252.704 21.9733 252.704 20.64V20.24C252.704 18.88 252.917 17.5467 253.344 16.24C253.77 14.9333 254.41 13.7733 255.264 12.76C256.144 11.72 257.224 10.8933 258.504 10.28C259.81 9.66667 261.33 9.36 263.064 9.36C264.744 9.36 266.237 9.66667 267.544 10.28C268.877 10.8933 269.957 11.76 270.784 12.88C271.637 13.9733 272.17 15.2933 272.384 16.84H270.304C270.064 15.24 269.317 13.92 268.064 12.88C266.81 11.8133 265.144 11.28 263.064 11.28C261.224 11.28 259.69 11.6933 258.464 12.52C257.237 13.3467 256.317 14.4533 255.704 15.84C255.117 17.2267 254.824 18.76 254.824 20.44C254.824 22.0667 255.13 23.5867 255.744 25C256.357 26.4133 257.277 27.56 258.504 28.44C259.73 29.2933 261.25 29.72 263.064 29.72C264.477 29.72 265.717 29.4667 266.784 28.96C267.877 28.4267 268.757 27.7333 269.424 26.88C270.09 26 270.49 25.04 270.624 24H272.704C272.517 25.5467 271.984 26.8933 271.104 28.04C270.224 29.16 269.09 30.0533 267.704 30.72C266.317 31.36 264.77 31.68 263.064 31.68ZM278.526 31V1.8H280.646V17.4L279.886 18.76C279.886 16.92 280.166 15.3067 280.726 13.92C281.313 12.5067 282.193 11.4133 283.366 10.64C284.54 9.84 286.02 9.44 287.806 9.44H287.886C290.5 9.44 292.473 10.2667 293.806 11.92C295.14 13.5467 295.806 15.7733 295.806 18.6V31H293.646V18.12C293.646 16.0933 293.1 14.4667 292.006 13.24C290.913 12.0133 289.366 11.4 287.366 11.4C285.313 11.4 283.673 12.0533 282.446 13.36C281.246 14.64 280.646 16.32 280.646 18.4V31H278.526ZM310.921 31.6C308.387 31.6 306.467 30.7867 305.161 29.16C303.854 27.5333 303.201 25.3333 303.201 22.56V10H305.361V23.04C305.361 24.9867 305.867 26.5733 306.881 27.8C307.921 29 309.414 29.6 311.361 29.6C313.334 29.6 314.894 28.9733 316.041 27.72C317.214 26.4667 317.801 24.8267 317.801 22.8V10H319.921V31H318.241V22.52H318.721C318.721 24.3067 318.427 25.8933 317.841 27.28C317.281 28.64 316.441 29.7067 315.321 30.48C314.201 31.2267 312.774 31.6 311.041 31.6H310.921ZM342.293 31L333.333 21.12H329.973L340.213 10H342.613L333.493 19.88L333.533 18.56L344.853 31H342.293ZM328.253 31V1.8H330.373V31H328.253ZM350.428 31V10H352.588V31H350.428ZM346.948 11.84V10H352.588V11.84H346.948ZM350.628 5.6C350.068 5.6 349.641 5.45333 349.348 5.16C349.054 4.84 348.908 4.44 348.908 3.96C348.908 3.45333 349.054 3.04 349.348 2.72C349.641 2.4 350.081 2.24 350.668 2.24C351.228 2.24 351.654 2.4 351.948 2.72C352.241 3.04 352.388 3.45333 352.388 3.96C352.388 4.44 352.241 4.84 351.948 5.16C351.681 5.45333 351.241 5.6 350.628 5.6ZM373.71 31V24.72H373.31V17C373.31 15.32 372.87 14.0267 371.99 13.12C371.11 12.1867 369.657 11.72 367.63 11.72C366.91 11.72 366.177 11.7467 365.43 11.8C364.683 11.8267 363.977 11.8667 363.31 11.92C362.643 11.9467 362.043 12 361.51 12.08V10.16C362.043 10.08 362.603 10.0133 363.19 9.96C363.803 9.90667 364.417 9.86667 365.03 9.84C365.643 9.81333 366.23 9.8 366.79 9.8C368.897 9.8 370.577 10.08 371.83 10.64C373.083 11.1733 373.99 12 374.55 13.12C375.11 14.2133 375.39 15.6133 375.39 17.32V31H373.71ZM366.39 31.56C364.977 31.56 363.71 31.3067 362.59 30.8C361.47 30.2933 360.577 29.5467 359.91 28.56C359.27 27.5733 358.95 26.3733 358.95 24.96C358.95 23.6 359.257 22.44 359.87 21.48C360.51 20.52 361.417 19.7867 362.59 19.28C363.79 18.7733 365.23 18.52 366.91 18.52H373.51V20.24H366.71C364.897 20.24 363.497 20.68 362.51 21.56C361.55 22.4133 361.07 23.5467 361.07 24.96C361.07 26.4533 361.59 27.64 362.63 28.52C363.67 29.3733 365.03 29.8 366.71 29.8C367.75 29.8 368.763 29.6 369.75 29.2C370.737 28.8 371.563 28.1333 372.23 27.2C372.897 26.24 373.257 24.96 373.31 23.36L374.11 24.28C374.03 25.9067 373.63 27.2667 372.91 28.36C372.217 29.4267 371.31 30.2267 370.19 30.76C369.07 31.2933 367.803 31.56 366.39 31.56Z" fill="white"/>
</svg>
